@startuml

abstract class AbstractList
abstract AbstractCollection
interface Collection
Collection <|-- AbstractCollection
AbstractCollection <|- AbstractList
AbstractList <|-- ArrayList
class ArrayList {
  Object[] elementData
  size()
}
enum TimeUnit {
  DAYS
  HOURS
  MINUTES
}
annotation SuppressWarnings
@enduml